<mxfile host="app.diagrams.net" agent="Mozilla/5.0 (Macintosh; Intel Mac OS X 10_15_7) AppleWebKit/537.36 (KHTML, like Gecko) Chrome/130.0.0.0 Safari/537.36" version="24.8.4">
  <diagram id="usbStwbLrsxGsUWkNR1v" name="Page-1">
    <mxGraphModel dx="3776" dy="2696" grid="1" gridSize="10" guides="1" tooltips="1" connect="1" arrows="1" fold="1" page="1" pageScale="1" pageWidth="850" pageHeight="1100" math="0" shadow="0">
      <root>
        <mxCell id="0" />
        <mxCell id="1" parent="0" />
        <mxCell id="1fsXJhoAHWNm7xGbjpKH-23" value="u" style="edgeStyle=orthogonalEdgeStyle;rounded=0;orthogonalLoop=1;jettySize=auto;html=1;" edge="1" parent="1">
          <mxGeometry relative="1" as="geometry">
            <mxPoint x="366.15384615384573" y="-1016.5" as="sourcePoint" />
            <mxPoint x="-920" y="-536.5" as="targetPoint" />
            <Array as="points">
              <mxPoint x="-920" y="-1016.5" />
            </Array>
          </mxGeometry>
        </mxCell>
        <mxCell id="1fsXJhoAHWNm7xGbjpKH-25" value="" style="edgeStyle=orthogonalEdgeStyle;rounded=0;orthogonalLoop=1;jettySize=auto;html=1;" edge="1" parent="1" source="1ebhKskdPuX7S_dA66-K-1" target="1fsXJhoAHWNm7xGbjpKH-24">
          <mxGeometry relative="1" as="geometry" />
        </mxCell>
        <mxCell id="1fsXJhoAHWNm7xGbjpKH-29" value="" style="edgeStyle=orthogonalEdgeStyle;rounded=0;orthogonalLoop=1;jettySize=auto;html=1;entryX=0.633;entryY=0.01;entryDx=0;entryDy=0;entryPerimeter=0;" edge="1" parent="1" target="1fsXJhoAHWNm7xGbjpKH-28">
          <mxGeometry relative="1" as="geometry">
            <mxPoint x="515" y="-1015" as="sourcePoint" />
            <mxPoint x="850" y="-690" as="targetPoint" />
          </mxGeometry>
        </mxCell>
        <mxCell id="1fsXJhoAHWNm7xGbjpKH-119" value="" style="edgeStyle=orthogonalEdgeStyle;rounded=0;orthogonalLoop=1;jettySize=auto;html=1;" edge="1" parent="1" source="1ebhKskdPuX7S_dA66-K-1" target="1fsXJhoAHWNm7xGbjpKH-118">
          <mxGeometry relative="1" as="geometry" />
        </mxCell>
        <mxCell id="1ebhKskdPuX7S_dA66-K-1" value="&lt;font style=&quot;font-size: 25px;&quot;&gt;START&lt;/font&gt;" style="ellipse;html=1;shape=startState;" parent="1" vertex="1">
          <mxGeometry x="360" y="-1080" width="160" height="130" as="geometry" />
        </mxCell>
        <mxCell id="1fsXJhoAHWNm7xGbjpKH-22" value="" style="whiteSpace=wrap;html=1;" vertex="1" parent="1">
          <mxGeometry x="-1120" y="-560" width="380" height="200" as="geometry" />
        </mxCell>
        <mxCell id="1fsXJhoAHWNm7xGbjpKH-24" value="" style="whiteSpace=wrap;html=1;" vertex="1" parent="1">
          <mxGeometry x="-125" y="-660" width="405" height="200" as="geometry" />
        </mxCell>
        <mxCell id="1fsXJhoAHWNm7xGbjpKH-28" value="" style="whiteSpace=wrap;html=1;" vertex="1" parent="1">
          <mxGeometry x="560" y="-680" width="400" height="200" as="geometry" />
        </mxCell>
        <mxCell id="1fsXJhoAHWNm7xGbjpKH-34" value="" style="group" vertex="1" connectable="0" parent="1">
          <mxGeometry x="-100" y="-620" width="350" height="50" as="geometry" />
        </mxCell>
        <mxCell id="1fsXJhoAHWNm7xGbjpKH-35" value="KCC-G&lt;br&gt;Red" style="ellipse;whiteSpace=wrap;html=1;" vertex="1" parent="1fsXJhoAHWNm7xGbjpKH-34">
          <mxGeometry width="90" height="50" as="geometry" />
        </mxCell>
        <mxCell id="1fsXJhoAHWNm7xGbjpKH-36" value="KCC-MTN&lt;br&gt;Green" style="ellipse;whiteSpace=wrap;html=1;container=1;" vertex="1" parent="1fsXJhoAHWNm7xGbjpKH-34">
          <mxGeometry x="130" width="90" height="50" as="geometry" />
        </mxCell>
        <mxCell id="1fsXJhoAHWNm7xGbjpKH-37" value="KCC-Sonatube&lt;br&gt;Red" style="ellipse;whiteSpace=wrap;html=1;" vertex="1" parent="1fsXJhoAHWNm7xGbjpKH-34">
          <mxGeometry x="260" width="90" height="50" as="geometry" />
        </mxCell>
        <mxCell id="1fsXJhoAHWNm7xGbjpKH-38" value="" style="group" vertex="1" connectable="0" parent="1">
          <mxGeometry x="565" y="-620" width="350" height="50" as="geometry" />
        </mxCell>
        <mxCell id="1fsXJhoAHWNm7xGbjpKH-39" value="MTN-G&lt;br&gt;Red" style="ellipse;whiteSpace=wrap;html=1;" vertex="1" parent="1fsXJhoAHWNm7xGbjpKH-38">
          <mxGeometry x="10" width="90" height="50" as="geometry" />
        </mxCell>
        <mxCell id="1fsXJhoAHWNm7xGbjpKH-40" value="MTN-Sonatube&lt;br&gt;Green" style="ellipse;whiteSpace=wrap;html=1;container=1;" vertex="1" parent="1fsXJhoAHWNm7xGbjpKH-38">
          <mxGeometry x="146" width="90" height="50" as="geometry" />
        </mxCell>
        <mxCell id="1fsXJhoAHWNm7xGbjpKH-41" value="MTN-KCC&lt;br&gt;Red" style="ellipse;whiteSpace=wrap;html=1;" vertex="1" parent="1fsXJhoAHWNm7xGbjpKH-38">
          <mxGeometry x="270" width="90" height="50" as="geometry" />
        </mxCell>
        <mxCell id="1fsXJhoAHWNm7xGbjpKH-51" value="" style="whiteSpace=wrap;html=1;" vertex="1" parent="1">
          <mxGeometry x="-1757.5" y="-130" width="400" height="200" as="geometry" />
        </mxCell>
        <mxCell id="1fsXJhoAHWNm7xGbjpKH-52" value="" style="group" vertex="1" connectable="0" parent="1">
          <mxGeometry x="-1745" y="-80" width="350" height="50" as="geometry" />
        </mxCell>
        <mxCell id="1fsXJhoAHWNm7xGbjpKH-53" value="KCC-G&lt;br&gt;Green" style="ellipse;whiteSpace=wrap;html=1;" vertex="1" parent="1fsXJhoAHWNm7xGbjpKH-52">
          <mxGeometry width="90" height="50" as="geometry" />
        </mxCell>
        <mxCell id="1fsXJhoAHWNm7xGbjpKH-54" value="KCC-MTN&lt;br&gt;Red" style="ellipse;whiteSpace=wrap;html=1;container=1;" vertex="1" parent="1fsXJhoAHWNm7xGbjpKH-52">
          <mxGeometry x="130" width="90" height="50" as="geometry" />
        </mxCell>
        <mxCell id="1fsXJhoAHWNm7xGbjpKH-55" value="KCC-Sonatube&lt;br&gt;Green" style="ellipse;whiteSpace=wrap;html=1;" vertex="1" parent="1fsXJhoAHWNm7xGbjpKH-52">
          <mxGeometry x="260" width="90" height="50" as="geometry" />
        </mxCell>
        <mxCell id="1fsXJhoAHWNm7xGbjpKH-56" value="" style="whiteSpace=wrap;html=1;" vertex="1" parent="1">
          <mxGeometry x="-1760.5" y="-360" width="400" height="200" as="geometry" />
        </mxCell>
        <mxCell id="1fsXJhoAHWNm7xGbjpKH-57" value="" style="group" vertex="1" connectable="0" parent="1">
          <mxGeometry x="-1741" y="-290" width="350" height="50" as="geometry" />
        </mxCell>
        <mxCell id="1fsXJhoAHWNm7xGbjpKH-58" value="MTN-G&lt;br&gt;Red" style="ellipse;whiteSpace=wrap;html=1;" vertex="1" parent="1fsXJhoAHWNm7xGbjpKH-57">
          <mxGeometry x="10" width="90" height="50" as="geometry" />
        </mxCell>
        <mxCell id="1fsXJhoAHWNm7xGbjpKH-59" value="MTN-Sonatube&lt;br&gt;Red" style="ellipse;whiteSpace=wrap;html=1;container=1;" vertex="1" parent="1fsXJhoAHWNm7xGbjpKH-57">
          <mxGeometry x="150" width="90" height="50" as="geometry" />
        </mxCell>
        <mxCell id="1fsXJhoAHWNm7xGbjpKH-60" value="MTN-KCC&lt;br&gt;Red" style="ellipse;whiteSpace=wrap;html=1;" vertex="1" parent="1fsXJhoAHWNm7xGbjpKH-57">
          <mxGeometry x="270" width="90" height="50" as="geometry" />
        </mxCell>
        <mxCell id="1fsXJhoAHWNm7xGbjpKH-61" value="" style="whiteSpace=wrap;html=1;" vertex="1" parent="1">
          <mxGeometry x="-1757.5" y="-640" width="405" height="200" as="geometry" />
        </mxCell>
        <mxCell id="1fsXJhoAHWNm7xGbjpKH-66" value="" style="endArrow=open;endFill=1;endSize=12;html=1;rounded=0;entryX=0.995;entryY=0.59;entryDx=0;entryDy=0;entryPerimeter=0;" edge="1" parent="1" target="1fsXJhoAHWNm7xGbjpKH-61">
          <mxGeometry width="160" relative="1" as="geometry">
            <mxPoint x="-1120" y="-520" as="sourcePoint" />
            <mxPoint x="-1319" y="-520" as="targetPoint" />
          </mxGeometry>
        </mxCell>
        <mxCell id="1fsXJhoAHWNm7xGbjpKH-67" value="" style="endArrow=open;endFill=1;endSize=12;html=1;rounded=0;exitX=0;exitY=1;exitDx=0;exitDy=0;entryX=1;entryY=0.25;entryDx=0;entryDy=0;" edge="1" parent="1" source="1fsXJhoAHWNm7xGbjpKH-22" target="1fsXJhoAHWNm7xGbjpKH-51">
          <mxGeometry width="160" relative="1" as="geometry">
            <mxPoint x="-1570" y="-240" as="sourcePoint" />
            <mxPoint x="-1360" y="-120" as="targetPoint" />
            <Array as="points">
              <mxPoint x="-1120" y="-80" />
            </Array>
          </mxGeometry>
        </mxCell>
        <mxCell id="1fsXJhoAHWNm7xGbjpKH-68" value="" style="endArrow=open;endFill=1;endSize=12;html=1;rounded=0;entryX=0.75;entryY=0;entryDx=0;entryDy=0;exitX=0;exitY=0.5;exitDx=0;exitDy=0;" edge="1" parent="1" source="1fsXJhoAHWNm7xGbjpKH-22" target="1fsXJhoAHWNm7xGbjpKH-56">
          <mxGeometry width="160" relative="1" as="geometry">
            <mxPoint x="-1010" y="-140" as="sourcePoint" />
            <mxPoint x="-850" y="-140" as="targetPoint" />
          </mxGeometry>
        </mxCell>
        <mxCell id="1fsXJhoAHWNm7xGbjpKH-79" value="" style="whiteSpace=wrap;html=1;" vertex="1" parent="1">
          <mxGeometry x="-640" y="-600" width="380" height="200" as="geometry" />
        </mxCell>
        <mxCell id="1fsXJhoAHWNm7xGbjpKH-80" value="" style="group" vertex="1" connectable="0" parent="1">
          <mxGeometry x="-630" y="-560" width="350" height="50" as="geometry" />
        </mxCell>
        <mxCell id="1fsXJhoAHWNm7xGbjpKH-81" value="G-KCC&lt;br&gt;Red" style="ellipse;whiteSpace=wrap;html=1;" vertex="1" parent="1fsXJhoAHWNm7xGbjpKH-80">
          <mxGeometry width="90" height="50" as="geometry" />
        </mxCell>
        <mxCell id="1fsXJhoAHWNm7xGbjpKH-82" value="G-MTN&lt;br&gt;Red" style="ellipse;whiteSpace=wrap;html=1;container=1;" vertex="1" parent="1fsXJhoAHWNm7xGbjpKH-80">
          <mxGeometry x="130" width="90" height="50" as="geometry" />
        </mxCell>
        <mxCell id="1fsXJhoAHWNm7xGbjpKH-83" value="G-Sonatube&lt;br&gt;Green" style="ellipse;whiteSpace=wrap;html=1;" vertex="1" parent="1fsXJhoAHWNm7xGbjpKH-80">
          <mxGeometry x="260" width="90" height="50" as="geometry" />
        </mxCell>
        <mxCell id="1fsXJhoAHWNm7xGbjpKH-64" value="Sonatube-KH&lt;br&gt;Red" style="ellipse;whiteSpace=wrap;html=1;container=1;" vertex="1" parent="1">
          <mxGeometry x="-1627.5" y="-583.5" width="90" height="47" as="geometry" />
        </mxCell>
        <mxCell id="1fsXJhoAHWNm7xGbjpKH-63" value="Sonatube-G&lt;br&gt;Red" style="ellipse;whiteSpace=wrap;html=1;" vertex="1" parent="1">
          <mxGeometry x="-1750.5" y="-583.5" width="90" height="47" as="geometry" />
        </mxCell>
        <mxCell id="1fsXJhoAHWNm7xGbjpKH-65" value="Sonatube-MTN&lt;br&gt;Red" style="ellipse;whiteSpace=wrap;html=1;" vertex="1" parent="1">
          <mxGeometry x="-1497.5" y="-583.5" width="90" height="47" as="geometry" />
        </mxCell>
        <mxCell id="1fsXJhoAHWNm7xGbjpKH-3" value="G-MTN&lt;br&gt;Green" style="ellipse;whiteSpace=wrap;html=1;container=1;" vertex="1" parent="1">
          <mxGeometry x="-960" y="-490" width="90" height="50" as="geometry" />
        </mxCell>
        <mxCell id="1fsXJhoAHWNm7xGbjpKH-4" value="G-Sonatube&lt;br&gt;Red" style="ellipse;whiteSpace=wrap;html=1;" vertex="1" parent="1">
          <mxGeometry x="-830" y="-490" width="90" height="50" as="geometry" />
        </mxCell>
        <mxCell id="1fsXJhoAHWNm7xGbjpKH-1" value="G-KCC&lt;br&gt;Green" style="ellipse;whiteSpace=wrap;html=1;" vertex="1" parent="1">
          <mxGeometry x="-1090" y="-490" width="90" height="50" as="geometry" />
        </mxCell>
        <mxCell id="1fsXJhoAHWNm7xGbjpKH-88" value="" style="whiteSpace=wrap;html=1;" vertex="1" parent="1">
          <mxGeometry x="-640" y="-360" width="380" height="200" as="geometry" />
        </mxCell>
        <mxCell id="1fsXJhoAHWNm7xGbjpKH-89" value="MTN-G&lt;br&gt;Red" style="ellipse;whiteSpace=wrap;html=1;" vertex="1" parent="1">
          <mxGeometry x="-625" y="-300" width="90" height="50" as="geometry" />
        </mxCell>
        <mxCell id="1fsXJhoAHWNm7xGbjpKH-90" value="MTN-Sonatube&lt;br&gt;Red" style="ellipse;whiteSpace=wrap;html=1;container=1;" vertex="1" parent="1">
          <mxGeometry x="-490" y="-300" width="90" height="50" as="geometry" />
        </mxCell>
        <mxCell id="1fsXJhoAHWNm7xGbjpKH-91" value="MTN-KCC&lt;br&gt;Green" style="ellipse;whiteSpace=wrap;html=1;" vertex="1" parent="1">
          <mxGeometry x="-365" y="-300" width="90" height="50" as="geometry" />
        </mxCell>
        <mxCell id="1fsXJhoAHWNm7xGbjpKH-92" value="" style="whiteSpace=wrap;html=1;" vertex="1" parent="1">
          <mxGeometry x="-640" y="-120" width="380" height="200" as="geometry" />
        </mxCell>
        <mxCell id="1fsXJhoAHWNm7xGbjpKH-93" value="Sonatube-KH&lt;br&gt;Red" style="ellipse;whiteSpace=wrap;html=1;container=1;" vertex="1" parent="1">
          <mxGeometry x="-495" y="-77" width="90" height="47" as="geometry" />
        </mxCell>
        <mxCell id="1fsXJhoAHWNm7xGbjpKH-94" value="Sonatube-G&lt;br&gt;Green" style="ellipse;whiteSpace=wrap;html=1;" vertex="1" parent="1">
          <mxGeometry x="-625" y="-77" width="90" height="47" as="geometry" />
        </mxCell>
        <mxCell id="1fsXJhoAHWNm7xGbjpKH-95" value="Sonatube-MTN&lt;br&gt;Red" style="ellipse;whiteSpace=wrap;html=1;" vertex="1" parent="1">
          <mxGeometry x="-365" y="-78" width="90" height="47" as="geometry" />
        </mxCell>
        <mxCell id="1fsXJhoAHWNm7xGbjpKH-96" value="" style="endArrow=open;endFill=1;endSize=12;html=1;rounded=0;exitX=0;exitY=0.5;exitDx=0;exitDy=0;entryX=0.992;entryY=0.18;entryDx=0;entryDy=0;entryPerimeter=0;" edge="1" parent="1" source="1fsXJhoAHWNm7xGbjpKH-24">
          <mxGeometry width="160" relative="1" as="geometry">
            <mxPoint x="-120" y="-557" as="sourcePoint" />
            <mxPoint x="-263.03999999999996" y="-561" as="targetPoint" />
          </mxGeometry>
        </mxCell>
        <mxCell id="1fsXJhoAHWNm7xGbjpKH-97" value="" style="endArrow=open;endFill=1;endSize=12;html=1;rounded=0;entryX=1.003;entryY=0.19;entryDx=0;entryDy=0;exitX=0.313;exitY=0.998;exitDx=0;exitDy=0;entryPerimeter=0;exitPerimeter=0;" edge="1" parent="1" source="1fsXJhoAHWNm7xGbjpKH-24" target="1fsXJhoAHWNm7xGbjpKH-88">
          <mxGeometry width="160" relative="1" as="geometry">
            <mxPoint y="-460" as="sourcePoint" />
            <mxPoint x="-340" y="-360" as="targetPoint" />
            <Array as="points">
              <mxPoint y="-320" />
            </Array>
          </mxGeometry>
        </mxCell>
        <mxCell id="1fsXJhoAHWNm7xGbjpKH-98" value="" style="endArrow=open;endFill=1;endSize=12;html=1;rounded=0;entryX=1.003;entryY=0.6;entryDx=0;entryDy=0;entryPerimeter=0;" edge="1" parent="1" target="1fsXJhoAHWNm7xGbjpKH-92">
          <mxGeometry width="160" relative="1" as="geometry">
            <mxPoint y="-460" as="sourcePoint" />
            <mxPoint x="-410" y="-230" as="targetPoint" />
            <Array as="points">
              <mxPoint />
            </Array>
          </mxGeometry>
        </mxCell>
        <mxCell id="1fsXJhoAHWNm7xGbjpKH-101" value="" style="whiteSpace=wrap;html=1;" vertex="1" parent="1">
          <mxGeometry x="1040" y="-680" width="380" height="200" as="geometry" />
        </mxCell>
        <mxCell id="1fsXJhoAHWNm7xGbjpKH-102" value="" style="group" vertex="1" connectable="0" parent="1">
          <mxGeometry x="1056" y="-640" width="350" height="50" as="geometry" />
        </mxCell>
        <mxCell id="1fsXJhoAHWNm7xGbjpKH-103" value="KCC-G&lt;br&gt;Red" style="ellipse;whiteSpace=wrap;html=1;" vertex="1" parent="1fsXJhoAHWNm7xGbjpKH-102">
          <mxGeometry width="90" height="50" as="geometry" />
        </mxCell>
        <mxCell id="1fsXJhoAHWNm7xGbjpKH-104" value="KCC-MTN&lt;br&gt;Red" style="ellipse;whiteSpace=wrap;html=1;container=1;" vertex="1" parent="1fsXJhoAHWNm7xGbjpKH-102">
          <mxGeometry x="130" width="90" height="50" as="geometry" />
        </mxCell>
        <mxCell id="1fsXJhoAHWNm7xGbjpKH-105" value="KCC-Sonatube&lt;br&gt;Green" style="ellipse;whiteSpace=wrap;html=1;" vertex="1" parent="1fsXJhoAHWNm7xGbjpKH-102">
          <mxGeometry x="260" width="90" height="50" as="geometry" />
        </mxCell>
        <mxCell id="1fsXJhoAHWNm7xGbjpKH-106" value="" style="whiteSpace=wrap;html=1;" vertex="1" parent="1">
          <mxGeometry x="1040" y="-440" width="380" height="200" as="geometry" />
        </mxCell>
        <mxCell id="1fsXJhoAHWNm7xGbjpKH-107" value="G-KCC&lt;br&gt;Red" style="ellipse;whiteSpace=wrap;html=1;" vertex="1" parent="1">
          <mxGeometry x="1055" y="-390" width="90" height="50" as="geometry" />
        </mxCell>
        <mxCell id="1fsXJhoAHWNm7xGbjpKH-108" value="G-MTN&lt;br&gt;Red" style="ellipse;whiteSpace=wrap;html=1;container=1;" vertex="1" parent="1">
          <mxGeometry x="1185" y="-390" width="90" height="50" as="geometry" />
        </mxCell>
        <mxCell id="1fsXJhoAHWNm7xGbjpKH-109" value="G-Sonatube&lt;br&gt;Red" style="ellipse;whiteSpace=wrap;html=1;" vertex="1" parent="1">
          <mxGeometry x="1315" y="-390" width="90" height="50" as="geometry" />
        </mxCell>
        <mxCell id="1fsXJhoAHWNm7xGbjpKH-110" value="" style="whiteSpace=wrap;html=1;" vertex="1" parent="1">
          <mxGeometry x="1038" y="-210" width="389" height="200" as="geometry" />
        </mxCell>
        <mxCell id="1fsXJhoAHWNm7xGbjpKH-111" value="Sonatube-KH&lt;br&gt;Green" style="ellipse;whiteSpace=wrap;html=1;container=1;" vertex="1" parent="1">
          <mxGeometry x="1185" y="-147" width="90" height="47" as="geometry" />
        </mxCell>
        <mxCell id="1fsXJhoAHWNm7xGbjpKH-112" value="Sonatube-G&lt;br&gt;Green" style="ellipse;whiteSpace=wrap;html=1;" vertex="1" parent="1">
          <mxGeometry x="1055" y="-147" width="90" height="47" as="geometry" />
        </mxCell>
        <mxCell id="1fsXJhoAHWNm7xGbjpKH-113" value="Sonatube-MTN&lt;br&gt;Green" style="ellipse;whiteSpace=wrap;html=1;" vertex="1" parent="1">
          <mxGeometry x="1315" y="-148" width="90" height="47" as="geometry" />
        </mxCell>
        <mxCell id="1fsXJhoAHWNm7xGbjpKH-114" value="" style="endArrow=open;endFill=1;endSize=12;html=1;rounded=0;exitX=1.003;exitY=0.41;exitDx=0;exitDy=0;exitPerimeter=0;entryX=0.008;entryY=0.41;entryDx=0;entryDy=0;entryPerimeter=0;" edge="1" parent="1" source="1fsXJhoAHWNm7xGbjpKH-28" target="1fsXJhoAHWNm7xGbjpKH-101">
          <mxGeometry width="160" relative="1" as="geometry">
            <mxPoint x="570" y="-160" as="sourcePoint" />
            <mxPoint x="730" y="-160" as="targetPoint" />
          </mxGeometry>
        </mxCell>
        <mxCell id="1fsXJhoAHWNm7xGbjpKH-115" value="" style="endArrow=open;endFill=1;endSize=12;html=1;rounded=0;exitX=0.5;exitY=1;exitDx=0;exitDy=0;entryX=0.008;entryY=0.41;entryDx=0;entryDy=0;entryPerimeter=0;" edge="1" parent="1" source="1fsXJhoAHWNm7xGbjpKH-28" target="1fsXJhoAHWNm7xGbjpKH-106">
          <mxGeometry width="160" relative="1" as="geometry">
            <mxPoint x="570" y="-160" as="sourcePoint" />
            <mxPoint x="920" y="-220" as="targetPoint" />
            <Array as="points">
              <mxPoint x="760" y="-358" />
              <mxPoint x="900" y="-358" />
            </Array>
          </mxGeometry>
        </mxCell>
        <mxCell id="1fsXJhoAHWNm7xGbjpKH-116" value="" style="endArrow=open;endFill=1;endSize=12;html=1;rounded=0;exitX=0.5;exitY=1;exitDx=0;exitDy=0;entryX=0.009;entryY=0.64;entryDx=0;entryDy=0;entryPerimeter=0;" edge="1" parent="1" source="1fsXJhoAHWNm7xGbjpKH-28" target="1fsXJhoAHWNm7xGbjpKH-110">
          <mxGeometry width="160" relative="1" as="geometry">
            <mxPoint x="758" y="-482" as="sourcePoint" />
            <mxPoint x="1047.88" y="-92" as="targetPoint" />
            <Array as="points">
              <mxPoint x="758" y="-82" />
            </Array>
          </mxGeometry>
        </mxCell>
        <mxCell id="1fsXJhoAHWNm7xGbjpKH-118" value="" style="whiteSpace=wrap;html=1;" vertex="1" parent="1">
          <mxGeometry x="1700" y="-685" width="380" height="200" as="geometry" />
        </mxCell>
        <mxCell id="1fsXJhoAHWNm7xGbjpKH-123" value="Sonatube-KH&lt;br&gt;Green" style="ellipse;whiteSpace=wrap;html=1;container=1;" vertex="1" parent="1">
          <mxGeometry x="1845" y="-620" width="90" height="50" as="geometry" />
        </mxCell>
        <mxCell id="1fsXJhoAHWNm7xGbjpKH-124" value="Sonatube-MTN&lt;br&gt;Green" style="ellipse;whiteSpace=wrap;html=1;" vertex="1" parent="1">
          <mxGeometry x="1975" y="-620" width="90" height="50" as="geometry" />
        </mxCell>
        <mxCell id="1fsXJhoAHWNm7xGbjpKH-125" value="Sonatube-G&lt;br&gt;Green" style="ellipse;whiteSpace=wrap;html=1;" vertex="1" parent="1">
          <mxGeometry x="1715" y="-620" width="90" height="50" as="geometry" />
        </mxCell>
        <mxCell id="1fsXJhoAHWNm7xGbjpKH-126" value="" style="whiteSpace=wrap;html=1;" vertex="1" parent="1">
          <mxGeometry x="2200" y="-680" width="400" height="200" as="geometry" />
        </mxCell>
        <mxCell id="1fsXJhoAHWNm7xGbjpKH-127" value="" style="group" vertex="1" connectable="0" parent="1">
          <mxGeometry x="2205" y="-620" width="350" height="50" as="geometry" />
        </mxCell>
        <mxCell id="1fsXJhoAHWNm7xGbjpKH-128" value="MTN-G&lt;br&gt;Red" style="ellipse;whiteSpace=wrap;html=1;" vertex="1" parent="1fsXJhoAHWNm7xGbjpKH-127">
          <mxGeometry x="10" width="90" height="50" as="geometry" />
        </mxCell>
        <mxCell id="1fsXJhoAHWNm7xGbjpKH-129" value="MTN-Sonatube&lt;br&gt;Green" style="ellipse;whiteSpace=wrap;html=1;container=1;" vertex="1" parent="1fsXJhoAHWNm7xGbjpKH-127">
          <mxGeometry x="146" width="90" height="50" as="geometry" />
        </mxCell>
        <mxCell id="1fsXJhoAHWNm7xGbjpKH-130" value="MTN-KCC&lt;br&gt;Red" style="ellipse;whiteSpace=wrap;html=1;" vertex="1" parent="1fsXJhoAHWNm7xGbjpKH-127">
          <mxGeometry x="270" width="90" height="50" as="geometry" />
        </mxCell>
        <mxCell id="1fsXJhoAHWNm7xGbjpKH-131" value="" style="whiteSpace=wrap;html=1;" vertex="1" parent="1">
          <mxGeometry x="2200" y="-400" width="400" height="200" as="geometry" />
        </mxCell>
        <mxCell id="1fsXJhoAHWNm7xGbjpKH-132" value="" style="group" vertex="1" connectable="0" parent="1">
          <mxGeometry x="2216" y="-360" width="350" height="50" as="geometry" />
        </mxCell>
        <mxCell id="1fsXJhoAHWNm7xGbjpKH-133" value="KCC-G&lt;br&gt;Red" style="ellipse;whiteSpace=wrap;html=1;" vertex="1" parent="1fsXJhoAHWNm7xGbjpKH-132">
          <mxGeometry width="90" height="50" as="geometry" />
        </mxCell>
        <mxCell id="1fsXJhoAHWNm7xGbjpKH-134" value="KCC-MTN&lt;br&gt;Red" style="ellipse;whiteSpace=wrap;html=1;container=1;" vertex="1" parent="1fsXJhoAHWNm7xGbjpKH-132">
          <mxGeometry x="130" width="90" height="50" as="geometry" />
        </mxCell>
        <mxCell id="1fsXJhoAHWNm7xGbjpKH-135" value="KCC-Sonatube&lt;br&gt;Green" style="ellipse;whiteSpace=wrap;html=1;" vertex="1" parent="1fsXJhoAHWNm7xGbjpKH-132">
          <mxGeometry x="260" width="90" height="50" as="geometry" />
        </mxCell>
        <mxCell id="1fsXJhoAHWNm7xGbjpKH-136" value="" style="whiteSpace=wrap;html=1;" vertex="1" parent="1">
          <mxGeometry x="2200" y="-120" width="400" height="200" as="geometry" />
        </mxCell>
        <mxCell id="1fsXJhoAHWNm7xGbjpKH-137" value="G-KCC&lt;br&gt;Red" style="ellipse;whiteSpace=wrap;html=1;" vertex="1" parent="1">
          <mxGeometry x="2220" y="-70" width="90" height="50" as="geometry" />
        </mxCell>
        <mxCell id="1fsXJhoAHWNm7xGbjpKH-138" value="G-MTN&lt;br&gt;Red" style="ellipse;whiteSpace=wrap;html=1;container=1;" vertex="1" parent="1">
          <mxGeometry x="2350" y="-70" width="90" height="50" as="geometry" />
        </mxCell>
        <mxCell id="1fsXJhoAHWNm7xGbjpKH-139" value="G-Sonatube&lt;br&gt;Red" style="ellipse;whiteSpace=wrap;html=1;" vertex="1" parent="1">
          <mxGeometry x="2480" y="-70" width="90" height="50" as="geometry" />
        </mxCell>
        <mxCell id="1fsXJhoAHWNm7xGbjpKH-140" value="" style="endArrow=open;endFill=1;endSize=12;html=1;rounded=0;exitX=1;exitY=0.41;exitDx=0;exitDy=0;exitPerimeter=0;entryX=0.01;entryY=0.39;entryDx=0;entryDy=0;entryPerimeter=0;" edge="1" parent="1" source="1fsXJhoAHWNm7xGbjpKH-118" target="1fsXJhoAHWNm7xGbjpKH-126">
          <mxGeometry width="160" relative="1" as="geometry">
            <mxPoint x="2080" y="-600" as="sourcePoint" />
            <mxPoint x="2190" y="-600" as="targetPoint" />
          </mxGeometry>
        </mxCell>
        <mxCell id="1fsXJhoAHWNm7xGbjpKH-141" value="" style="endArrow=open;endFill=1;endSize=12;html=1;rounded=0;entryX=0.005;entryY=0.19;entryDx=0;entryDy=0;entryPerimeter=0;exitX=0.579;exitY=0.99;exitDx=0;exitDy=0;exitPerimeter=0;" edge="1" parent="1" source="1fsXJhoAHWNm7xGbjpKH-118" target="1fsXJhoAHWNm7xGbjpKH-131">
          <mxGeometry width="160" relative="1" as="geometry">
            <mxPoint x="1860" y="-440" as="sourcePoint" />
            <mxPoint x="2180" y="-358" as="targetPoint" />
            <Array as="points">
              <mxPoint x="1920" y="-358" />
              <mxPoint x="2057" y="-358" />
            </Array>
          </mxGeometry>
        </mxCell>
        <mxCell id="1fsXJhoAHWNm7xGbjpKH-142" value="" style="endArrow=open;endFill=1;endSize=12;html=1;rounded=0;entryX=0.005;entryY=0.33;entryDx=0;entryDy=0;entryPerimeter=0;" edge="1" parent="1" target="1fsXJhoAHWNm7xGbjpKH-136">
          <mxGeometry width="160" relative="1" as="geometry">
            <mxPoint x="1920" y="-480" as="sourcePoint" />
            <mxPoint x="2190" y="-56" as="targetPoint" />
            <Array as="points">
              <mxPoint x="1920.16" y="-61" />
            </Array>
          </mxGeometry>
        </mxCell>
        <mxCell id="1fsXJhoAHWNm7xGbjpKH-145" value="" style="edgeStyle=orthogonalEdgeStyle;rounded=0;orthogonalLoop=1;jettySize=auto;html=1;entryX=0.5;entryY=1;entryDx=0;entryDy=0;" edge="1" parent="1" source="1fsXJhoAHWNm7xGbjpKH-143" target="1fsXJhoAHWNm7xGbjpKH-92">
          <mxGeometry relative="1" as="geometry">
            <mxPoint x="-500" y="400" as="targetPoint" />
          </mxGeometry>
        </mxCell>
        <mxCell id="1fsXJhoAHWNm7xGbjpKH-147" value="" style="edgeStyle=orthogonalEdgeStyle;rounded=0;orthogonalLoop=1;jettySize=auto;html=1;entryX=0.381;entryY=0.986;entryDx=0;entryDy=0;entryPerimeter=0;" edge="1" parent="1" source="1fsXJhoAHWNm7xGbjpKH-143" target="1fsXJhoAHWNm7xGbjpKH-51">
          <mxGeometry relative="1" as="geometry">
            <mxPoint x="-1400" y="270" as="targetPoint" />
          </mxGeometry>
        </mxCell>
        <mxCell id="1fsXJhoAHWNm7xGbjpKH-149" value="" style="edgeStyle=orthogonalEdgeStyle;rounded=0;orthogonalLoop=1;jettySize=auto;html=1;entryX=0.618;entryY=1.001;entryDx=0;entryDy=0;entryPerimeter=0;" edge="1" parent="1" source="1fsXJhoAHWNm7xGbjpKH-143" target="1fsXJhoAHWNm7xGbjpKH-110">
          <mxGeometry relative="1" as="geometry">
            <mxPoint x="1240.1428571428578" y="159.99999999999955" as="targetPoint" />
            <Array as="points">
              <mxPoint x="1280" y="795" />
              <mxPoint x="1280" y="-10" />
            </Array>
          </mxGeometry>
        </mxCell>
        <mxCell id="1fsXJhoAHWNm7xGbjpKH-151" value="" style="edgeStyle=orthogonalEdgeStyle;rounded=0;orthogonalLoop=1;jettySize=auto;html=1;entryX=0.687;entryY=1.015;entryDx=0;entryDy=0;entryPerimeter=0;" edge="1" parent="1" source="1fsXJhoAHWNm7xGbjpKH-143" target="1fsXJhoAHWNm7xGbjpKH-136">
          <mxGeometry relative="1" as="geometry">
            <mxPoint x="2400" y="120" as="targetPoint" />
          </mxGeometry>
        </mxCell>
        <mxCell id="1fsXJhoAHWNm7xGbjpKH-152" value="Text" style="edgeLabel;html=1;align=center;verticalAlign=middle;resizable=0;points=[];" vertex="1" connectable="0" parent="1fsXJhoAHWNm7xGbjpKH-151">
          <mxGeometry x="0.9417" y="-6" relative="1" as="geometry">
            <mxPoint y="1" as="offset" />
          </mxGeometry>
        </mxCell>
        <mxCell id="1fsXJhoAHWNm7xGbjpKH-143" value="&lt;font style=&quot;font-size: 55px;&quot;&gt;End&lt;/font&gt;" style="ellipse;html=1;shape=endState;" vertex="1" parent="1">
          <mxGeometry x="240" y="630" width="350" height="330" as="geometry" />
        </mxCell>
        <mxCell id="1fsXJhoAHWNm7xGbjpKH-155" value="Yellow" style="text;html=1;align=center;verticalAlign=middle;resizable=0;points=[];autosize=1;strokeColor=none;fillColor=none;" vertex="1" parent="1">
          <mxGeometry x="-500" y="-680" width="60" height="30" as="geometry" />
        </mxCell>
        <mxCell id="1fsXJhoAHWNm7xGbjpKH-156" value="" style="endArrow=open;endFill=1;endSize=12;html=1;rounded=0;entryX=0.006;entryY=0.087;entryDx=0;entryDy=0;entryPerimeter=0;" edge="1" parent="1" target="1fsXJhoAHWNm7xGbjpKH-24">
          <mxGeometry width="160" relative="1" as="geometry">
            <mxPoint x="-840" y="-560" as="sourcePoint" />
            <mxPoint x="-280" y="-640" as="targetPoint" />
            <Array as="points">
              <mxPoint x="-840" y="-640" />
            </Array>
          </mxGeometry>
        </mxCell>
        <mxCell id="1fsXJhoAHWNm7xGbjpKH-157" value="" style="endArrow=open;endFill=1;endSize=12;html=1;rounded=0;exitX=1;exitY=0.5;exitDx=0;exitDy=0;entryX=-0.002;entryY=0.601;entryDx=0;entryDy=0;entryPerimeter=0;" edge="1" parent="1" source="1fsXJhoAHWNm7xGbjpKH-24" target="1fsXJhoAHWNm7xGbjpKH-28">
          <mxGeometry width="160" relative="1" as="geometry">
            <mxPoint x="330" y="-560" as="sourcePoint" />
            <mxPoint x="435" y="-560" as="targetPoint" />
          </mxGeometry>
        </mxCell>
        <mxCell id="1fsXJhoAHWNm7xGbjpKH-158" value="" style="endArrow=open;endFill=1;endSize=12;html=1;rounded=0;exitX=0.908;exitY=0.009;exitDx=0;exitDy=0;exitPerimeter=0;entryX=0.178;entryY=0.001;entryDx=0;entryDy=0;entryPerimeter=0;" edge="1" parent="1" source="1fsXJhoAHWNm7xGbjpKH-28" target="1fsXJhoAHWNm7xGbjpKH-118">
          <mxGeometry width="160" relative="1" as="geometry">
            <mxPoint x="920" y="-690" as="sourcePoint" />
            <mxPoint x="1810" y="-750" as="targetPoint" />
            <Array as="points">
              <mxPoint x="916" y="-760" />
              <mxPoint x="1770" y="-760" />
            </Array>
          </mxGeometry>
        </mxCell>
        <mxCell id="1fsXJhoAHWNm7xGbjpKH-159" value="Yellow" style="text;html=1;align=center;verticalAlign=middle;resizable=0;points=[];autosize=1;strokeColor=none;fillColor=none;" vertex="1" parent="1">
          <mxGeometry x="385" y="-600" width="60" height="30" as="geometry" />
        </mxCell>
        <mxCell id="1fsXJhoAHWNm7xGbjpKH-160" value="Yellow" style="text;html=1;align=center;verticalAlign=middle;resizable=0;points=[];autosize=1;strokeColor=none;fillColor=none;" vertex="1" parent="1">
          <mxGeometry x="1406" y="-810" width="60" height="30" as="geometry" />
        </mxCell>
      </root>
    </mxGraphModel>
  </diagram>
</mxfile>
